<svg width="170" height="198" viewBox="0 0 170 198" fill="none" xmlns="http://www.w3.org/2000/svg">
<g clip-path="url(#clip0_1_19)">
<path d="M27.5001 112.9C39.6001 108.9 52.2001 106.4 65.0001 105.3L84.7001 85.6L104.4 105.3C117.2 106.3 129.7 108.9 141.9 112.9L169.7 77.5L108.3 104L124.8 91.4V42.1L92.8001 90.3L97.0001 74L84.7001 -0.299999L72.5001 74L76.6001 90.3L44.6001 42.1V91.4L61.1001 104L-0.399902 77.4L27.5001 112.9Z" fill="#00E8E8"/>
<path d="M84.4001 197.8H85.1001C87.6001 162.6 114.4 133.7 149.9 125.8C137.5 119.3 120.2 114.7 100.5 113.1L84.8001 128.8L69.0001 113C49.3001 114.6 32.0001 119.2 19.6001 125.7C55.1001 133.7 81.9001 162.6 84.4001 197.8Z" fill="#00E8E8"/>
</g>
<defs>
<clipPath id="clip0_1_19">
<rect width="170" height="198" fill="white"/>
</clipPath>
</defs>
</svg>
